<?xml version="1.0" encoding="UTF-8"?>
<svg width="228px" height="258px" viewBox="0 0 228 258" version="1.1" xmlns="http://www.w3.org/2000/svg" xmlns:xlink="http://www.w3.org/1999/xlink">
    <!-- Generator: Sketch 62 (91390) - https://sketch.com -->
    <title>EDUİKO</title>
    <desc>Türkiye'nin En Büyük Okulu</desc>
    <g id="Page-1" stroke="none" stroke-width="1" fill="none" fill-rule="evenodd">
        <g id="Group-3">
            <g id="Group-2">
                <g id="IKO_LogoRules_HighSchool_Dark_withOpacity">
                    <path d="M121.44,1.89 L220.65,59.17 C225.035649,61.6996736 227.74,66.3770796 227.74,71.44 L227.74,186.01 C227.74,191.07292 225.035649,195.750326 220.65,198.28 L121.44,255.57 C117.055787,258.101227 111.654213,258.101227 107.27,255.57 L8.06,198.29 C3.67435099,195.760326 0.97,191.08292 0.97,186.02 L0.97,71.45 C0.97,66.3870796 3.67435099,61.7096736 8.06,59.18 L107.27,1.9 C111.652427,-0.634321443 117.054001,-0.638133422 121.44,1.89 L121.44,1.89 Z" id="Path" fill="#009FE3" fill-rule="nonzero"></path>
                    <path d="M121.44,18.26 L206.44,67.36 C210.825649,69.8896736 213.530024,74.5670796 213.530024,79.63 L213.530024,177.83 C213.539315,182.87495 210.865625,187.544387 206.51,190.09 L121.51,239.19 C117.125787,241.721227 111.724213,241.721227 107.34,239.19 L22.34,190.09 C17.954351,187.560326 15.25,182.88292 15.25,177.82 L15.25,79.62 C15.25,74.5570796 17.954351,69.8796736 22.34,67.35 L107.34,18.25 C111.708165,15.7487237 117.075387,15.7525303 121.44,18.26 L121.44,18.26 Z" id="Path" fill="#FFFFFF" fill-rule="nonzero"></path>
                    <path d="M121.44,21.53 L203.64,68.99 C208.025649,71.5196736 210.73,76.1970796 210.73,81.26 L210.73,176.19 C210.73,181.25292 208.025649,185.930326 203.64,188.46 L121.44,235.93 C117.055787,238.461227 111.654213,238.461227 107.27,235.93 L25.07,188.47 C20.684351,185.940326 17.98,181.26292 17.98,176.2 L17.98,81.27 C17.98,76.2070796 20.684351,71.5296736 25.07,69 L107.27,21.54 C111.652427,19.0056786 117.054001,19.0018666 121.44,21.53 L121.44,21.53 Z" id="Path" fill="#312783" fill-rule="nonzero"></path>
                    <path d="M121.44,24.81 L200.81,70.63 C205.195649,73.1596736 207.9,77.8370796 207.9,82.9 L207.9,174.55 C207.9,179.61292 205.195649,184.290326 200.81,186.82 L121.44,232.65 C117.055787,235.181227 111.654213,235.181227 107.27,232.65 L27.9,186.83 C23.514351,184.300326 20.81,179.62292 20.81,174.56 L20.81,82.91 C20.81,77.8470796 23.514351,73.1696736 27.9,70.64 L107.27,24.82 C111.652427,22.2856786 117.054001,22.2818666 121.44,24.81 L121.44,24.81 Z" id="Path" fill="#FFFFFF" fill-rule="nonzero"></path>
                    <g id="Group" transform="translate(40.000000, 103.000000)"></g>
                    <g id="Group" transform="translate(61.000000, 62.000000)"></g>
                    <g id="Group" transform="translate(102.000000, 206.000000)"></g>
                    <g id="Group" transform="translate(113.000000, 163.000000)"></g>
                </g>
                <path d="M66.032,148.926092 L66.032,142.469259 L53.312,142.469259 L53.312,131.963225 L64.832,131.963225 L64.832,125.506392 L53.312,125.506392 L53.312,116.313613 L65.552,116.313613 L65.552,109.856779 L46.4,109.856779 L46.4,148.926092 L66.032,148.926092 Z M80.72,148.926092 C83.024,148.926092 84.928,148.52482 86.432,147.722275 C87.936,146.919731 89.136,145.697675 90.032,144.056108 C90.928,142.41454 91.56,140.326101 91.928,137.790791 C92.296,135.25548 92.48,132.273299 92.48,128.844246 C92.48,125.962383 92.336,123.354114 92.048,121.01944 C91.76,118.684766 91.208,116.687525 90.392,115.027718 C89.576,113.36791 88.432,112.091135 86.96,111.197393 C85.488,110.303651 83.552,109.856779 81.152,109.856779 L69.824,109.856779 L69.824,148.926092 L80.72,148.926092 Z M79.808,143.125886 L76.736,143.125886 L76.736,115.656985 L79.664,115.656985 C80.976,115.656985 82.024,115.9397 82.808,116.505129 C83.592,117.070558 84.184,117.909581 84.584,119.022199 C84.984,120.134817 85.248,121.53015 85.376,123.208197 C85.504,124.886244 85.568,126.837886 85.568,129.063122 C85.568,131.72611 85.496,133.951346 85.352,135.738831 C85.208,137.526316 84.92,138.967247 84.488,140.061626 C84.056,141.156004 83.472,141.940309 82.736,142.41454 C82,142.88877 81.024,143.125886 79.808,143.125886 Z M107.552,149.528 C108.96,149.528 110.32,149.363843 111.632,149.03553 C112.944,148.707216 114.112,148.068829 115.136,147.120367 C116.16,146.171906 116.976,144.886011 117.584,143.262683 C118.192,141.639355 118.496,139.587395 118.496,137.106804 L118.496,109.856779 L111.584,109.856779 L111.584,137.106804 C111.584,138.091745 111.528,138.994607 111.416,139.815391 C111.304,140.636175 111.096,141.347521 110.792,141.949429 C110.488,142.551337 110.08,143.025568 109.568,143.372121 C109.056,143.718674 108.384,143.891951 107.552,143.891951 C106.752,143.891951 106.088,143.718674 105.56,143.372121 C105.032,143.025568 104.616,142.551337 104.312,141.949429 C104.008,141.347521 103.8,140.636175 103.688,139.815391 C103.576,138.994607 103.52,138.091745 103.52,137.106804 L103.52,109.856779 L96.608,109.856779 L96.608,137.106804 C96.608,139.733312 96.912,141.867351 97.52,143.508918 C98.128,145.150486 98.944,146.418141 99.968,147.311884 C100.992,148.205626 102.16,148.798414 103.472,149.090249 C104.784,149.382083 106.144,149.528 107.552,149.528 Z M129.344,107.120833 L129.344,100.664 L123.968,100.664 L123.968,107.120833 L129.344,107.120833 Z M130.112,148.926092 L130.112,109.856779 L123.2,109.856779 L123.2,148.926092 L130.112,148.926092 Z M142.16,148.926092 L142.16,137.32568 L144.704,132.893447 L151.76,148.926092 L159.536,148.926092 L149.168,126.60077 L158.48,109.856779 L150.992,109.856779 L142.256,125.506392 L142.16,125.506392 L142.16,109.856779 L135.248,109.856779 L135.248,148.926092 L142.16,148.926092 Z M171.968,149.528 C174.56,149.528 176.624,149.053769 178.16,148.105308 C179.696,147.156847 180.872,145.788873 181.688,144.001389 C182.504,142.213904 183.032,140.079866 183.272,137.599274 C183.512,135.118683 183.632,132.382737 183.632,129.391436 C183.632,126.436614 183.512,123.709787 183.272,121.210956 C183.032,118.712125 182.504,116.568968 181.688,114.781483 C180.872,112.993998 179.696,111.598665 178.16,110.595485 C176.624,109.592305 174.56,109.090714 171.968,109.090714 C169.376,109.090714 167.312,109.592305 165.776,110.595485 C164.24,111.598665 163.064,112.993998 162.248,114.781483 C161.432,116.568968 160.904,118.712125 160.664,121.210956 C160.424,123.709787 160.304,126.436614 160.304,129.391436 C160.304,132.382737 160.424,135.118683 160.664,137.599274 C160.904,140.079866 161.432,142.213904 162.248,144.001389 C163.064,145.788873 164.24,147.156847 165.776,148.105308 C167.312,149.053769 169.376,149.528 171.968,149.528 Z M171.968,143.891951 C170.944,143.891951 170.12,143.627476 169.496,143.098526 C168.872,142.569577 168.392,141.730553 168.056,140.581456 C167.72,139.432358 167.496,137.936708 167.384,136.094504 C167.272,134.2523 167.216,132.017944 167.216,129.391436 C167.216,126.764927 167.272,124.539691 167.384,122.715727 C167.496,120.891763 167.72,119.396112 168.056,118.228775 C168.392,117.061438 168.872,116.213295 169.496,115.684345 C170.12,115.155395 170.944,114.89092 171.968,114.89092 C172.992,114.89092 173.816,115.155395 174.44,115.684345 C175.064,116.213295 175.544,117.061438 175.88,118.228775 C176.216,119.396112 176.44,120.891763 176.552,122.715727 C176.664,124.539691 176.72,126.764927 176.72,129.391436 C176.72,132.017944 176.664,134.2523 176.552,136.094504 C176.44,137.936708 176.216,139.432358 175.88,140.581456 C175.544,141.730553 175.064,142.569577 174.44,143.098526 C173.816,143.627476 172.992,143.891951 171.968,143.891951 Z" id="EDUİKO" fill="#312783" fill-rule="nonzero"></path>
            </g>
            <rect id="Rectangle" fill="#312783" opacity="0.200000003" x="65" y="168" width="97" height="2" rx="1"></rect>
            <text id="2020" opacity="0.600000024" font-family="Roboto-Bold, Roboto" font-size="17" font-weight="bold" letter-spacing="2.55" fill="#40378C">
                <tspan x="92" y="199">2020</tspan>
            </text>
        </g>
    </g>
</svg>