<svg xmlns="http://www.w3.org/2000/svg" viewBox="0 0 583.84 669.77"><defs><style>.cls-1{fill:#00aeef;}.cls-2{fill:#fff;}.cls-3{fill:#2e3192;}</style></defs><title>Asset 1</title><g id="Layer_2" data-name="Layer 2"><g id="Layer_1-2" data-name="Layer 1"><path class="cls-1" d="M299,1.9,576.75,162.25a14.21,14.21,0,0,1,7.09,12.28V495.24a14.2,14.2,0,0,1-7.09,12.28L299,667.87a14.18,14.18,0,0,1-14.17,0L7.09,507.52A14.18,14.18,0,0,1,0,495.24V174.53a14.19,14.19,0,0,1,7.09-12.28L284.83,1.9A14.18,14.18,0,0,1,299,1.9Z"/><path class="cls-2" d="M299,44,540.26,183.32a14.17,14.17,0,0,1,7.09,12.28V474.17a14.17,14.17,0,0,1-7.09,12.28L299,625.74a14.18,14.18,0,0,1-14.17,0L43.58,486.45a14.17,14.17,0,0,1-7.09-12.28V195.6a14.17,14.17,0,0,1,7.09-12.28L284.83,44A14.18,14.18,0,0,1,299,44Z"/><path class="cls-3" d="M299,52.46,533,187.54a14.16,14.16,0,0,1,7.09,12.27V470A14.19,14.19,0,0,1,533,482.24L299,617.31a14.18,14.18,0,0,1-14.17,0l-234-135.07A14.2,14.2,0,0,1,43.79,470V199.81a14.17,14.17,0,0,1,7.08-12.27l234-135.08A14.18,14.18,0,0,1,299,52.46Z"/><path class="cls-2" d="M299,60.89,525.66,191.75A14.16,14.16,0,0,1,532.75,204V465.75A14.16,14.16,0,0,1,525.66,478L299,608.88a14.13,14.13,0,0,1-14.17,0L58.17,478a14.17,14.17,0,0,1-7.08-12.27V204a14.17,14.17,0,0,1,7.08-12.27L284.83,60.89A14.18,14.18,0,0,1,299,60.89Z"/><path class="cls-3" d="M122.58,333.49l-5,9.86v33.11H101.52V268.67h16.09v47l21.07-47h16.09l-22.38,48,22.38,59.75H138.24Z"/><path class="cls-3" d="M218.55,376.46H202.32l-2.79-19.56H179.78L177,376.46H162.23l16.38-107.79h23.56Zm-36.72-34.19h15.51l-7.75-54.51Z"/><path class="cls-3" d="M264.49,345.2l11-76.53h22.38V376.46H282.63v-77.3l-11.12,77.3H256.3l-12-76.23v76.23H230.25V268.67h22.39Z"/><path class="cls-3" d="M361.63,295.31v14c0,17.24-7.9,26.64-24,26.64H330v40.5h-16.1V268.67h23.7C353.73,268.67,361.63,278.06,361.63,295.31ZM330,284.06v36.5h7.6c5.12,0,7.9-2.46,7.9-10.16V294.23c0-7.7-2.78-10.17-7.9-10.17Z"/><path class="cls-3" d="M389.57,268.67v83.15c0,7.7,3.22,10.47,8.34,10.47s8.34-2.77,8.34-10.47V268.67h15.21v82.07c0,17.25-8.19,27.1-24,27.1s-24-9.85-24-27.1V268.67Zm4.09-20.48V263h-14V248.19Zm22.24,0V263h-14V248.19Z"/><path class="cls-3" d="M458.47,267.43c15.66,0,23.7,9.86,23.7,27.11v3.38H467v-4.46c0-7.7-2.93-10.63-8-10.63s-8,2.93-8,10.63c0,22.17,31.45,26.33,31.45,57.13,0,17.24-8.19,27.1-24,27.1s-24-9.86-24-27.1V344h15.22v7.69c0,7.7,3.22,10.48,8.34,10.48s8.34-2.78,8.34-10.48c0-22.17-31.46-26.33-31.46-57.12C434.77,277.29,442.82,267.43,458.47,267.43Z"/><path class="cls-3" d="M166.17,447.4A35.78,35.78,0,0,1,165,457a20.5,20.5,0,0,1-3.56,7.27,15.59,15.59,0,0,1-5.94,4.6,20,20,0,0,1-8.33,1.61A20.48,20.48,0,0,1,139,469a14.26,14.26,0,0,1-5.67-4.29,18.69,18.69,0,0,1-3.33-7,37.94,37.94,0,0,1-1.09-9.59,34.47,34.47,0,0,1,1.19-9.41,19.77,19.77,0,0,1,3.57-7.2,15.82,15.82,0,0,1,6-4.57,20,20,0,0,1,8.34-1.61,20.35,20.35,0,0,1,8,1.45,14.65,14.65,0,0,1,5.68,4.25,18.53,18.53,0,0,1,3.38,6.91A36.84,36.84,0,0,1,166.17,447.4Zm-5.86.4a35.81,35.81,0,0,0-.63-6.92,16.13,16.13,0,0,0-2.09-5.56,10.19,10.19,0,0,0-3.9-3.67,12.58,12.58,0,0,0-6-1.32,11.79,11.79,0,0,0-6,1.42,11.53,11.53,0,0,0-4,3.79,16.23,16.23,0,0,0-2.19,5.54,32.54,32.54,0,0,0-.66,6.65,39.28,39.28,0,0,0,.61,7.12,16.22,16.22,0,0,0,2.06,5.6,10.08,10.08,0,0,0,3.87,3.66,12.77,12.77,0,0,0,6.09,1.31,12.09,12.09,0,0,0,6.11-1.43,11.18,11.18,0,0,0,4-3.84,16.74,16.74,0,0,0,2.16-5.61A34.65,34.65,0,0,0,160.31,447.8Z"/><path class="cls-3" d="M202.69,468.94a1,1,0,0,1-.1.47.71.71,0,0,1-.42.34,3.18,3.18,0,0,1-.9.2,12.75,12.75,0,0,1-1.54.07,10.22,10.22,0,0,1-1.37-.07,2.49,2.49,0,0,1-.85-.22,1.15,1.15,0,0,1-.5-.42,2.88,2.88,0,0,1-.31-.68l-3.83-10.33c-.45-1.17-.91-2.25-1.4-3.23a10.21,10.21,0,0,0-1.72-2.54,6.88,6.88,0,0,0-2.35-1.66,8,8,0,0,0-3.25-.6h-3.7v18.67a.82.82,0,0,1-.14.47.9.9,0,0,1-.45.32,4.63,4.63,0,0,1-.84.21,11.18,11.18,0,0,1-2.67,0,4.77,4.77,0,0,1-.85-.21.75.75,0,0,1-.45-.32.81.81,0,0,1-.13-.47V428.36a2.22,2.22,0,0,1,.66-1.84A2.15,2.15,0,0,1,177,426h8.85c1,0,1.92,0,2.62.08s1.32.12,1.88.19a15.56,15.56,0,0,1,4.26,1.39,10.11,10.11,0,0,1,3.11,2.4,9.92,9.92,0,0,1,1.88,3.34,14.09,14.09,0,0,1,.07,8.1,9.76,9.76,0,0,1-1.63,3.08,11.06,11.06,0,0,1-2.54,2.32,16.09,16.09,0,0,1-3.32,1.66,7.76,7.76,0,0,1,1.87,1.2,10.16,10.16,0,0,1,1.56,1.74,16,16,0,0,1,1.37,2.34c.43.88.86,1.88,1.29,3l3.73,9.66c.3.81.49,1.38.58,1.71A3.52,3.52,0,0,1,202.69,468.94Zm-8.34-30.79a8.12,8.12,0,0,0-1.09-4.35,6.16,6.16,0,0,0-3.67-2.56,10,10,0,0,0-1.82-.34c-.67-.07-1.56-.1-2.65-.1h-4.67v14.77h5.41a11.49,11.49,0,0,0,3.78-.56,7.22,7.22,0,0,0,2.65-1.56,6.12,6.12,0,0,0,1.57-2.35A8.57,8.57,0,0,0,194.35,438.15Z"/><path class="cls-3" d="M236.15,428.5a9.23,9.23,0,0,1-.06,1.12,3,3,0,0,1-.21.76,1.08,1.08,0,0,1-.36.42.83.83,0,0,1-.46.14H223.34v38a.89.89,0,0,1-.12.47.81.81,0,0,1-.46.32,4.56,4.56,0,0,1-.85.21,11,11,0,0,1-2.65,0,4.62,4.62,0,0,1-.87-.21.75.75,0,0,1-.45-.32.81.81,0,0,1-.13-.47v-38H206.1a.86.86,0,0,1-.47-.14,1,1,0,0,1-.34-.42,4.24,4.24,0,0,1-.21-.76,7.35,7.35,0,0,1-.08-1.12,7.63,7.63,0,0,1,.08-1.14,4.18,4.18,0,0,1,.21-.79.93.93,0,0,1,.34-.44.86.86,0,0,1,.47-.14h29a.83.83,0,0,1,.46.14,1,1,0,0,1,.36.44,3.07,3.07,0,0,1,.21.79A9.58,9.58,0,0,1,236.15,428.5Z"/><path class="cls-3" d="M268.2,467.75a4.41,4.41,0,0,1,.27,1.21.86.86,0,0,1-.24.69,1.43,1.43,0,0,1-.85.3,13.56,13.56,0,0,1-1.59.07c-.67,0-1.2,0-1.6,0a3.34,3.34,0,0,1-.9-.17,1,1,0,0,1-.45-.32,2.43,2.43,0,0,1-.27-.51L259,458.3H241.68l-3.41,10.54a1.8,1.8,0,0,1-.25.52,1.27,1.27,0,0,1-.47.37,2.43,2.43,0,0,1-.87.22,11.64,11.64,0,0,1-1.46.07,12.37,12.37,0,0,1-1.53-.08,1.58,1.58,0,0,1-.84-.32.9.9,0,0,1-.22-.7,4.35,4.35,0,0,1,.27-1.2l14-40.71a1.87,1.87,0,0,1,.34-.61,1.42,1.42,0,0,1,.61-.38,4.36,4.36,0,0,1,1-.18c.42,0,.95,0,1.6,0s1.25,0,1.7,0a4.74,4.74,0,0,1,1.1.18,1.45,1.45,0,0,1,.64.39,1.75,1.75,0,0,1,.35.63Zm-17.92-35.93h0l-7.17,21.84h14.48Z"/><path class="cls-3" d="M309.29,447.4A35.78,35.78,0,0,1,308.1,457a20.5,20.5,0,0,1-3.56,7.27,15.48,15.48,0,0,1-5.93,4.6,20.05,20.05,0,0,1-8.34,1.61,20.48,20.48,0,0,1-8.12-1.47,14.26,14.26,0,0,1-5.67-4.29,18.69,18.69,0,0,1-3.33-7,37.94,37.94,0,0,1-1.09-9.59,34.86,34.86,0,0,1,1.19-9.41,19.93,19.93,0,0,1,3.57-7.2,15.78,15.78,0,0,1,6-4.57,20,20,0,0,1,8.33-1.61,20.28,20.28,0,0,1,8,1.45,14.58,14.58,0,0,1,5.68,4.25,18.53,18.53,0,0,1,3.38,6.91A36.4,36.4,0,0,1,309.29,447.4Zm-5.86.4a36.64,36.64,0,0,0-.62-6.92,16.54,16.54,0,0,0-2.09-5.56,10.29,10.29,0,0,0-3.91-3.67,12.58,12.58,0,0,0-6-1.32,11.82,11.82,0,0,0-6,1.42,11.62,11.62,0,0,0-4,3.79,16,16,0,0,0-2.18,5.54,31.85,31.85,0,0,0-.66,6.65,38.41,38.41,0,0,0,.61,7.12,16.22,16.22,0,0,0,2.05,5.6,10.11,10.11,0,0,0,3.88,3.66,12.71,12.71,0,0,0,6.09,1.31,12,12,0,0,0,6.1-1.43,11.29,11.29,0,0,0,4-3.84,17,17,0,0,0,2.15-5.61A33.89,33.89,0,0,0,303.43,447.8Z"/><path class="cls-3" d="M345.2,468.87a1,1,0,0,1-.12.49.79.79,0,0,1-.43.36,4,4,0,0,1-.87.22,10.64,10.64,0,0,1-1.41.08,13.06,13.06,0,0,1-1.84-.1,2.34,2.34,0,0,1-1.06-.37,2.56,2.56,0,0,1-.58-.61L323.57,447v21.92a.89.89,0,0,1-.12.45.8.8,0,0,1-.45.34,4.91,4.91,0,0,1-.86.21,11,11,0,0,1-2.65,0,4.62,4.62,0,0,1-.87-.21.74.74,0,0,1-.45-.34.81.81,0,0,1-.13-.45V426.87a.8.8,0,0,1,.58-.8,5.74,5.74,0,0,1,.87-.2,11,11,0,0,1,2.65,0,6.2,6.2,0,0,1,.86.2.77.77,0,0,1,.57.8v19.48l14.74-19.48a2.22,2.22,0,0,1,.45-.51,2.07,2.07,0,0,1,.63-.32,5.62,5.62,0,0,1,.9-.19,12.6,12.6,0,0,1,1.37-.06,9.66,9.66,0,0,1,1.35.08,3.65,3.65,0,0,1,.82.22.93.93,0,0,1,.42.34,1,1,0,0,1,.11.44,2,2,0,0,1-.21.88,8.08,8.08,0,0,1-.79,1.22l-13.8,17.38,14.86,20.79a6.89,6.89,0,0,1,.66,1.21A1.52,1.52,0,0,1,345.2,468.87Z"/><path class="cls-3" d="M382.65,453.63a21.3,21.3,0,0,1-1.11,7.13,14.78,14.78,0,0,1-3.17,5.3,13.2,13.2,0,0,1-5,3.28,18.79,18.79,0,0,1-6.72,1.12,18,18,0,0,1-6.28-1,13.19,13.19,0,0,1-4.86-3.1,13.6,13.6,0,0,1-3.12-5.13,21.16,21.16,0,0,1-1.09-7.11v-27.2a.8.8,0,0,1,.58-.8,6,6,0,0,1,.83-.2,11.18,11.18,0,0,1,2.67,0,5.56,5.56,0,0,1,.86.2.83.83,0,0,1,.43.33.81.81,0,0,1,.13.47v26.49a18,18,0,0,0,.71,5.32,10.1,10.1,0,0,0,2,3.77,8.44,8.44,0,0,0,3.22,2.27,11.15,11.15,0,0,0,4.23.76,11.78,11.78,0,0,0,4.3-.74,8.15,8.15,0,0,0,3.18-2.24,10.06,10.06,0,0,0,2-3.69,17.26,17.26,0,0,0,.69-5.15V426.87a.8.8,0,0,1,.58-.8,6,6,0,0,1,.85-.2,9.66,9.66,0,0,1,1.33-.08,9.56,9.56,0,0,1,1.31.08,5.34,5.34,0,0,1,.83.2,1,1,0,0,1,.46.33.82.82,0,0,1,.14.47Z"/><path class="cls-3" d="M415.22,467.28a8.61,8.61,0,0,1-.07,1.13,2.59,2.59,0,0,1-.21.78,1.15,1.15,0,0,1-.35.48.84.84,0,0,1-.5.15H395.68a2.23,2.23,0,0,1-1.4-.53,2.25,2.25,0,0,1-.65-1.84V426.87a.77.77,0,0,1,.57-.8,6.39,6.39,0,0,1,.87-.2,9.94,9.94,0,0,1,1.32-.08,9.82,9.82,0,0,1,1.34.08,6,6,0,0,1,.85.2.89.89,0,0,1,.45.33.81.81,0,0,1,.13.47v37.9h14.93a.84.84,0,0,1,.5.15,1.31,1.31,0,0,1,.35.44,2.37,2.37,0,0,1,.21.77A9.07,9.07,0,0,1,415.22,467.28Z"/><path class="cls-3" d="M451.22,453.63a21.3,21.3,0,0,1-1.11,7.13,14.78,14.78,0,0,1-3.17,5.3,13.2,13.2,0,0,1-5,3.28,18.79,18.79,0,0,1-6.72,1.12,18,18,0,0,1-6.28-1,13.19,13.19,0,0,1-4.86-3.1,13.6,13.6,0,0,1-3.12-5.13,21.16,21.16,0,0,1-1.09-7.11v-27.2a.8.8,0,0,1,.58-.8,6,6,0,0,1,.83-.2,9.82,9.82,0,0,1,1.36-.08,9.67,9.67,0,0,1,1.31.08,5.56,5.56,0,0,1,.86.2.83.83,0,0,1,.43.33.81.81,0,0,1,.13.47v26.49a18,18,0,0,0,.71,5.32,10.1,10.1,0,0,0,2,3.77,8.44,8.44,0,0,0,3.22,2.27,11.15,11.15,0,0,0,4.23.76,11.78,11.78,0,0,0,4.3-.74A8.15,8.15,0,0,0,443,462.5a10.06,10.06,0,0,0,2-3.69,17.26,17.26,0,0,0,.69-5.15V426.87a.8.8,0,0,1,.58-.8,6,6,0,0,1,.85-.2,9.71,9.71,0,0,1,1.34-.08,9.51,9.51,0,0,1,1.3.08,5.82,5.82,0,0,1,.84.2,1,1,0,0,1,.45.33.82.82,0,0,1,.14.47Z"/><path class="cls-3" d="M163.56,168.36a3.64,3.64,0,0,1-.71,2.58,3.48,3.48,0,0,1-2.51.71,3.41,3.41,0,0,1-2.46-.69,3.67,3.67,0,0,1-.67-2.53,3.71,3.71,0,0,1,.69-2.57,4.7,4.7,0,0,1,5,0A3.58,3.58,0,0,1,163.56,168.36ZM163,218.78a.89.89,0,0,1-.12.47.87.87,0,0,1-.45.32,4,4,0,0,1-.85.2,9.58,9.58,0,0,1-2.62,0,4.18,4.18,0,0,1-.87-.2.78.78,0,0,1-.57-.79V177.12a.75.75,0,0,1,.15-.47.89.89,0,0,1,.47-.32,4.58,4.58,0,0,1,.86-.2,7.58,7.58,0,0,1,1.26-.09,8,8,0,0,1,1.32.09,4,4,0,0,1,.85.2.87.87,0,0,1,.45.32.89.89,0,0,1,.12.47Z"/><path class="cls-3" d="M199.39,207.48a13.19,13.19,0,0,1-1.07,5.43,11.54,11.54,0,0,1-3,4,12.51,12.51,0,0,1-4.46,2.5,17.7,17.7,0,0,1-5.53.84,18.54,18.54,0,0,1-3.84-.37,19.56,19.56,0,0,1-3.16-.9,15.49,15.49,0,0,1-2.33-1.11,6.15,6.15,0,0,1-1.3-1,2.36,2.36,0,0,1-.54-1,6.11,6.11,0,0,1-.18-1.66,10.2,10.2,0,0,1,.06-1.22,3.23,3.23,0,0,1,.2-.79.89.89,0,0,1,.31-.42.84.84,0,0,1,.45-.12,2.52,2.52,0,0,1,1.26.57,18.23,18.23,0,0,0,2.09,1.25,20.48,20.48,0,0,0,3.07,1.25,13.18,13.18,0,0,0,4.16.59,10.29,10.29,0,0,0,3.27-.5,7.54,7.54,0,0,0,2.55-1.43,6.1,6.1,0,0,0,1.64-2.26,7.77,7.77,0,0,0,.57-3.06,5.94,5.94,0,0,0-.79-3.15,8.34,8.34,0,0,0-2.11-2.3,18.13,18.13,0,0,0-3-1.81l-3.42-1.68a36.51,36.51,0,0,1-3.41-1.89,14.36,14.36,0,0,1-3-2.45A10.89,10.89,0,0,1,175,187a11.86,11.86,0,0,1,.94-4.85,10,10,0,0,1,2.61-3.57,11.7,11.7,0,0,1,4-2.2,16.06,16.06,0,0,1,5-.75,15.12,15.12,0,0,1,2.75.25,18.23,18.23,0,0,1,2.62.67,14.28,14.28,0,0,1,2.18.94,5.39,5.39,0,0,1,1.26.84,2.93,2.93,0,0,1,.4.5,2.55,2.55,0,0,1,.16.47,5.32,5.32,0,0,1,.09.69c0,.27,0,.61,0,1s0,.76,0,1.07a4.45,4.45,0,0,1-.15.79.93.93,0,0,1-.27.47.6.6,0,0,1-.4.15,2.56,2.56,0,0,1-1.1-.47c-.5-.31-1.11-.66-1.83-1.06a15.32,15.32,0,0,0-2.57-1.07,10.7,10.7,0,0,0-3.33-.49,8.48,8.48,0,0,0-3,.49,6.08,6.08,0,0,0-2.1,1.29A5.15,5.15,0,0,0,181,184.1a6.69,6.69,0,0,0-.41,2.34,5.88,5.88,0,0,0,.79,3.12,8.6,8.6,0,0,0,2.12,2.32,19.07,19.07,0,0,0,3,1.84l3.44,1.7c1.17.57,2.31,1.19,3.44,1.88a14.17,14.17,0,0,1,3,2.41,11.13,11.13,0,0,1,2.14,3.29A11.34,11.34,0,0,1,199.39,207.48Z"/><path class="cls-3" d="M235.9,178.73a7.09,7.09,0,0,1-.07,1.1,2.23,2.23,0,0,1-.21.76,1,1,0,0,1-.35.42.8.8,0,0,1-.46.13h-11.6v37.64a.89.89,0,0,1-.12.47.87.87,0,0,1-.45.32,4.28,4.28,0,0,1-.85.2,8,8,0,0,1-1.32.09,8.24,8.24,0,0,1-1.31-.09,4.22,4.22,0,0,1-.86-.2.78.78,0,0,1-.57-.79V181.14h-11.6a.8.8,0,0,1-.46-.13,1,1,0,0,1-.34-.42,3.8,3.8,0,0,1-.21-.76,7.09,7.09,0,0,1-.07-1.1,7.6,7.6,0,0,1,.07-1.13,4.65,4.65,0,0,1,.21-.79,1,1,0,0,1,.34-.43.81.81,0,0,1,.46-.14h28.68a.81.81,0,0,1,.46.14,1,1,0,0,1,.35.43,2.58,2.58,0,0,1,.21.79A7.6,7.6,0,0,1,235.9,178.73Z"/><path class="cls-3" d="M270.9,217.61a4.3,4.3,0,0,1,.27,1.19.86.86,0,0,1-.24.69,1.5,1.5,0,0,1-.84.3,15.81,15.81,0,0,1-1.58.07c-.66,0-1.18,0-1.57-.05a3.59,3.59,0,0,1-.9-.17,1,1,0,0,1-.44-.32,2.12,2.12,0,0,1-.27-.5l-3.54-10.57H244.64l-3.38,10.43a1.8,1.8,0,0,1-.25.52,1.23,1.23,0,0,1-.46.37,3,3,0,0,1-.87.22,13.52,13.52,0,0,1-1.44.07,10.4,10.4,0,0,1-1.52-.09,1.43,1.43,0,0,1-.83-.32.85.85,0,0,1-.22-.68,4.22,4.22,0,0,1,.27-1.19l13.83-40.33a1.72,1.72,0,0,1,.34-.6,1.31,1.31,0,0,1,.6-.37,4.77,4.77,0,0,1,1-.19c.42,0,.94-.05,1.58-.05s1.24,0,1.69.05a5,5,0,0,1,1.08.19,1.47,1.47,0,0,1,.64.38,1.79,1.79,0,0,1,.35.62ZM253.15,182h0L246,203.65h14.34Z"/><path class="cls-3" d="M312.22,217.27a2.85,2.85,0,0,1-.21,1.15,2.47,2.47,0,0,1-.56.77,2.22,2.22,0,0,1-.78.43,2.87,2.87,0,0,1-.86.14H308a5.58,5.58,0,0,1-1.5-.19,3.21,3.21,0,0,1-1.22-.67,6.75,6.75,0,0,1-1.15-1.32,18.38,18.38,0,0,1-1.23-2.15l-12.58-24.69c-.65-1.28-1.32-2.61-2-4s-1.29-2.76-1.86-4.08h-.06c0,1.61.07,3.26.09,4.93s0,3.35,0,5v26.2a.79.79,0,0,1-.59.79,4,4,0,0,1-.84.2,8.07,8.07,0,0,1-1.33.09,7.94,7.94,0,0,1-1.32-.09,3.73,3.73,0,0,1-.83-.2.9.9,0,0,1-.44-.33,1,1,0,0,1-.13-.46V178.73a2.31,2.31,0,0,1,.72-1.92,2.52,2.52,0,0,1,1.58-.57h2.7a6.53,6.53,0,0,1,1.6.17,3.4,3.4,0,0,1,1.15.55,4.76,4.76,0,0,1,1,1.08,12.88,12.88,0,0,1,1,1.73l9.68,19c.59,1.17,1.17,2.3,1.72,3.41s1.09,2.19,1.6,3.27,1,2.13,1.53,3.17,1,2.08,1.49,3.14h0c0-1.77-.06-3.61-.08-5.52s0-3.75,0-5.52V177.22a.78.78,0,0,1,.13-.44,1.09,1.09,0,0,1,.46-.35,3,3,0,0,1,.84-.22,11.9,11.9,0,0,1,1.36-.07,11.59,11.59,0,0,1,1.28.07,2.8,2.8,0,0,1,.84.22,1.15,1.15,0,0,1,.44.35.78.78,0,0,1,.13.44Z"/><path class="cls-3" d="M353.63,207.21a13.65,13.65,0,0,1-.49,3.77,11.42,11.42,0,0,1-1.39,3.11,10.5,10.5,0,0,1-2.15,2.41,12,12,0,0,1-2.84,1.75,15.22,15.22,0,0,1-3.37,1.05,21.23,21.23,0,0,1-4.13.36H328.49a2.18,2.18,0,0,1-1.39-.53,2.21,2.21,0,0,1-.65-1.82V178.59a2,2,0,0,1,2-2.35h9.37a20.73,20.73,0,0,1,6.05.74,10.59,10.59,0,0,1,3.94,2.15,8.89,8.89,0,0,1,2.37,3.45,12.74,12.74,0,0,1,.8,4.63,12.43,12.43,0,0,1-.35,3,9.89,9.89,0,0,1-1,2.6,8.75,8.75,0,0,1-1.72,2.13,9.13,9.13,0,0,1-2.37,1.54,9.6,9.6,0,0,1,3.15,1.22,9.74,9.74,0,0,1,2.57,2.27,10.93,10.93,0,0,1,1.74,3.22A12.48,12.48,0,0,1,353.63,207.21Zm-8.25-19.43a9.38,9.38,0,0,0-.41-2.85,5.39,5.39,0,0,0-1.31-2.16,5.76,5.76,0,0,0-2.32-1.36,12.55,12.55,0,0,0-3.78-.47H331.9V195h6.23a8.46,8.46,0,0,0,3.43-.59,6.24,6.24,0,0,0,2.17-1.58,6.16,6.16,0,0,0,1.25-2.31A9.37,9.37,0,0,0,345.38,187.78Zm2.48,19.76a9.29,9.29,0,0,0-.58-3.42,6.63,6.63,0,0,0-1.72-2.48,7.54,7.54,0,0,0-2.83-1.53,15.15,15.15,0,0,0-4.28-.52H331.9v15.3h8a10.46,10.46,0,0,0,3.28-.47,7.11,7.11,0,0,0,2.46-1.39,6.3,6.3,0,0,0,1.67-2.3A7.89,7.89,0,0,0,347.86,207.54Z"/><path class="cls-3" d="M396.23,203.62a21.14,21.14,0,0,1-1.1,7.06,14.64,14.64,0,0,1-3.14,5.25,13.24,13.24,0,0,1-5,3.26,19,19,0,0,1-6.67,1.1,17.59,17.59,0,0,1-6.21-1,12.93,12.93,0,0,1-4.81-3.07,13.42,13.42,0,0,1-3.09-5.08,20.8,20.8,0,0,1-1.09-7V177.12a.81.81,0,0,1,.13-.47.8.8,0,0,1,.45-.32,3.93,3.93,0,0,1,.82-.2,8,8,0,0,1,1.34-.09,8.15,8.15,0,0,1,1.31.09,4,4,0,0,1,.85.2.86.86,0,0,1,.43.32.89.89,0,0,1,.12.47v26.23a18,18,0,0,0,.7,5.27,10,10,0,0,0,2,3.74,8.55,8.55,0,0,0,3.18,2.25,11.17,11.17,0,0,0,4.19.75,11.52,11.52,0,0,0,4.26-.74,8.19,8.19,0,0,0,3.16-2.21,10,10,0,0,0,2-3.66,16.92,16.92,0,0,0,.69-5.1V177.12a.89.89,0,0,1,.12-.47.87.87,0,0,1,.45-.32,4,4,0,0,1,.84-.2,8.24,8.24,0,0,1,1.33-.09,7.8,7.8,0,0,1,1.29.09,3.88,3.88,0,0,1,.83.2.89.89,0,0,1,.44.32.75.75,0,0,1,.15.47Z"/><path class="cls-3" d="M431.74,217.14a8.67,8.67,0,0,1-.06,1.12,2.77,2.77,0,0,1-.21.78,1.06,1.06,0,0,1-.35.46.76.76,0,0,1-.49.16H412.4a2,2,0,0,1-2-2.35V177.12a.89.89,0,0,1,.12-.47.87.87,0,0,1,.45-.32,4.07,4.07,0,0,1,.86-.2,8.15,8.15,0,0,1,1.31-.09,8,8,0,0,1,1.32.09,4,4,0,0,1,.84.2.8.8,0,0,1,.45.32.81.81,0,0,1,.13.47v37.54h14.79a.81.81,0,0,1,.49.15,1.09,1.09,0,0,1,.35.43,2.3,2.3,0,0,1,.21.76A9.12,9.12,0,0,1,431.74,217.14Z"/><path class="cls-3" d="M273.83,554.69a2.58,2.58,0,0,1-.05.53.89.89,0,0,1-.13.34.53.53,0,0,1-.17.19.43.43,0,0,1-.22.06H262.7a.36.36,0,0,1-.2-.06.47.47,0,0,1-.18-.19.89.89,0,0,1-.14-.34,2.66,2.66,0,0,1,0-.53,2.51,2.51,0,0,1,0-.51,1.3,1.3,0,0,1,.12-.35.56.56,0,0,1,.17-.22.39.39,0,0,1,.23-.07h4.22V537.35L263,539.8a1.78,1.78,0,0,1-.47.2.32.32,0,0,1-.29-.07.57.57,0,0,1-.15-.36,3.57,3.57,0,0,1,0-.62,3.4,3.4,0,0,1,0-.48,2.09,2.09,0,0,1,.07-.33.86.86,0,0,1,.13-.23,1.57,1.57,0,0,1,.23-.2l4.66-3.14a.48.48,0,0,1,.16-.08l.23-.07.33,0h.47a5.22,5.22,0,0,1,.62,0,1.8,1.8,0,0,1,.39.1.29.29,0,0,1,.19.14.45.45,0,0,1,.05.19v18.71h3.65a.4.4,0,0,1,.24.07.58.58,0,0,1,.18.22,1.31,1.31,0,0,1,.11.35A3.52,3.52,0,0,1,273.83,554.69Z"/><path class="cls-3" d="M292.08,544.33a24,24,0,0,1-.16,2.79,16.08,16.08,0,0,1-.53,2.73,12,12,0,0,1-1,2.45,7.79,7.79,0,0,1-1.6,2,7.15,7.15,0,0,1-2.28,1.34,9,9,0,0,1-3.07.48,9.29,9.29,0,0,1-1.31-.09,10.06,10.06,0,0,1-1.14-.22,6,6,0,0,1-.85-.28,1.67,1.67,0,0,1-.5-.3.92.92,0,0,1-.23-.4,3,3,0,0,1-.07-.68,4.4,4.4,0,0,1,0-.58,1.17,1.17,0,0,1,.07-.33.25.25,0,0,1,.13-.15.46.46,0,0,1,.21-.05,1.51,1.51,0,0,1,.48.13l.79.27a9.75,9.75,0,0,0,1.12.27,7.9,7.9,0,0,0,1.44.12,5.18,5.18,0,0,0,2.6-.61,5.12,5.12,0,0,0,1.78-1.65,8.08,8.08,0,0,0,1-2.41,12.75,12.75,0,0,0,.37-2.88,9.62,9.62,0,0,1-2,.91,8.32,8.32,0,0,1-2.66.39,7.43,7.43,0,0,1-2.84-.48,4.7,4.7,0,0,1-1.84-1.33,5.12,5.12,0,0,1-1-2,9.92,9.92,0,0,1-.31-2.51,9.07,9.07,0,0,1,.39-2.69,6.46,6.46,0,0,1,1.22-2.25,6.06,6.06,0,0,1,2.11-1.55,7.54,7.54,0,0,1,3.07-.57,7,7,0,0,1,2.24.33,5.17,5.17,0,0,1,1.7,1,6.14,6.14,0,0,1,1.22,1.53,8.94,8.94,0,0,1,.8,2,15.88,15.88,0,0,1,.44,2.46A27.5,27.5,0,0,1,292.08,544.33Zm-2.74-.32a19.71,19.71,0,0,0-.26-3.54,7.46,7.46,0,0,0-.78-2.33,3.25,3.25,0,0,0-1.27-1.28,4,4,0,0,0-3.47,0,3.45,3.45,0,0,0-1.18,1,4.66,4.66,0,0,0-.68,1.48,6.81,6.81,0,0,0-.22,1.69,7.57,7.57,0,0,0,.2,1.78,3.49,3.49,0,0,0,.63,1.36,2.85,2.85,0,0,0,1.14.87,4.45,4.45,0,0,0,1.74.3,6.87,6.87,0,0,0,2.26-.37A6.14,6.14,0,0,0,289.34,544Z"/><path class="cls-3" d="M310.23,544.33a26.39,26.39,0,0,1-.16,2.79,17.12,17.12,0,0,1-.53,2.73,12,12,0,0,1-1,2.45,7.55,7.55,0,0,1-1.59,2,7.32,7.32,0,0,1-2.29,1.34,9,9,0,0,1-3.07.48,9.15,9.15,0,0,1-1.3-.09,9.26,9.26,0,0,1-1.14-.22,6.22,6.22,0,0,1-.86-.28,1.82,1.82,0,0,1-.5-.3.82.82,0,0,1-.22-.4,2.53,2.53,0,0,1-.07-.68,4.72,4.72,0,0,1,0-.58,1.68,1.68,0,0,1,.07-.33.28.28,0,0,1,.13-.15.48.48,0,0,1,.22-.05,1.57,1.57,0,0,1,.48.13l.79.27a9.75,9.75,0,0,0,1.12.27,7.71,7.71,0,0,0,1.43.12,5.25,5.25,0,0,0,2.61-.61,5.18,5.18,0,0,0,1.77-1.65,7.84,7.84,0,0,0,1-2.41,12.75,12.75,0,0,0,.38-2.88,9.72,9.72,0,0,1-2,.91,8.26,8.26,0,0,1-2.65.39,7.39,7.39,0,0,1-2.84-.48,4.74,4.74,0,0,1-1.85-1.33,5.26,5.26,0,0,1-1-2,9.93,9.93,0,0,1-.3-2.51,9.07,9.07,0,0,1,.39-2.69,6.3,6.3,0,0,1,1.22-2.25,5.88,5.88,0,0,1,2.11-1.55,7.46,7.46,0,0,1,3.06-.57,7,7,0,0,1,2.24.33,5.07,5.07,0,0,1,1.7,1,5.92,5.92,0,0,1,1.22,1.53,8.94,8.94,0,0,1,.8,2,14.77,14.77,0,0,1,.44,2.46A27.41,27.41,0,0,1,310.23,544.33Zm-2.74-.32a20.68,20.68,0,0,0-.26-3.54,7.21,7.21,0,0,0-.79-2.33,3.17,3.17,0,0,0-1.26-1.28,3.6,3.6,0,0,0-1.74-.4,3.57,3.57,0,0,0-1.73.39,3.36,3.36,0,0,0-1.18,1,4.45,4.45,0,0,0-.68,1.48,6.37,6.37,0,0,0-.22,1.69,7.59,7.59,0,0,0,.19,1.78,3.37,3.37,0,0,0,.64,1.36,2.85,2.85,0,0,0,1.14.87,4.4,4.4,0,0,0,1.73.3,7,7,0,0,0,2.27-.37A6.26,6.26,0,0,0,307.49,544Z"/><path class="cls-3" d="M328.37,544.33a24,24,0,0,1-.16,2.79,16.08,16.08,0,0,1-.53,2.73,11.48,11.48,0,0,1-1,2.45,7.55,7.55,0,0,1-1.59,2,7.15,7.15,0,0,1-2.28,1.34,9,9,0,0,1-3.07.48,9.29,9.29,0,0,1-1.31-.09,10.06,10.06,0,0,1-1.14-.22,6,6,0,0,1-.85-.28,1.67,1.67,0,0,1-.5-.3.92.92,0,0,1-.23-.4,2.53,2.53,0,0,1-.07-.68c0-.24,0-.44,0-.58a1.14,1.14,0,0,1,.08-.33.25.25,0,0,1,.13-.15.46.46,0,0,1,.21-.05,1.51,1.51,0,0,1,.48.13l.79.27a9.75,9.75,0,0,0,1.12.27,7.9,7.9,0,0,0,1.44.12,5.18,5.18,0,0,0,2.6-.61,5,5,0,0,0,1.77-1.65,7.85,7.85,0,0,0,1-2.41,13.35,13.35,0,0,0,.37-2.88,9.62,9.62,0,0,1-2,.91,8.32,8.32,0,0,1-2.66.39,7.39,7.39,0,0,1-2.84-.48,4.7,4.7,0,0,1-1.84-1.33,5,5,0,0,1-1-2,9.48,9.48,0,0,1-.31-2.51,9.07,9.07,0,0,1,.39-2.69,6.3,6.3,0,0,1,1.22-2.25,6.06,6.06,0,0,1,2.11-1.55,7.54,7.54,0,0,1,3.07-.57,7,7,0,0,1,2.24.33,5.17,5.17,0,0,1,1.7,1A6.1,6.1,0,0,1,327,537a8.52,8.52,0,0,1,.81,2,15.88,15.88,0,0,1,.44,2.46C328.32,542.42,328.37,543.35,328.37,544.33Zm-2.74-.32a19.71,19.71,0,0,0-.26-3.54,7.46,7.46,0,0,0-.78-2.33,3.25,3.25,0,0,0-1.27-1.28,4,4,0,0,0-3.47,0,3.45,3.45,0,0,0-1.18,1,4.66,4.66,0,0,0-.68,1.48,6.81,6.81,0,0,0-.22,1.69,7.57,7.57,0,0,0,.2,1.78,3.49,3.49,0,0,0,.63,1.36,2.85,2.85,0,0,0,1.14.87,4.45,4.45,0,0,0,1.74.3,6.91,6.91,0,0,0,2.26-.37A6.26,6.26,0,0,0,325.63,544Z"/><rect class="cls-3" x="175.05" y="498.28" width="240.33" height="3.06"/></g></g></svg>